# xmcd
#
# Track frame offsets: 
#        150
#        14350
#        24690
#        37447
#        48610
#        60687
#        73625
#        82717
#        94160
#        107152
#        122237
#        130727
#        141542
#        151585
#        163630
#        178195
#        190877
#        201765
#        211437
#        224360
#
# Disc length: 3114 seconds
#
# Revision: 3
# Processed by: cddbd v1.5.2PL0 Copyright (c) Steve Scherf et al.
# Submitted via: ExactAudioCopy v0.95b4
#
DISCID=2c0c2814
DTITLE=Simon and Garfunkel - The Very Best Of Simon AThe Very Best of Si
DTITLE=mon and Garfunkel: Tales from New York [CD1 of 2)
DYEAR=1999
DGENRE=
TTITLE0=The Sound of Silence
TTITLE1=Wednesday Morning, 3AM
TTITLE2=The Sun is Burning
TTITLE3=Peggy-O
TTITLE4=Benedictus
TTITLE5=He was my Brother
TTITLE6=Weve got a Groovy Thing Going
TTITLE7=Homeward Bound
TTITLE8=I am a Rock
TTITLE9=Kathys Song
TTITLE10=April Come She Will
TTITLE11=Leaves that are Green
TTITLE12=Flowers Never Bend with the Rainfall
TTITLE13=The Dangling Conversation
TTITLE14=Scarborough Fair - Canticle
TTITLE15=Patterns
TTITLE16=Cloudy
TTITLE17=For Emily, Whenever I May Find Her
TTITLE18=Save the Life of my Child
TTITLE19=7 OClock News - Silent Night
EXTD=
EXTT0=
EXTT1=
EXTT2=
EXTT3=
EXTT4=
EXTT5=
EXTT6=
EXTT7=
EXTT8=
EXTT9=
EXTT10=
EXTT11=
EXTT12=
EXTT13=
EXTT14=
EXTT15=
EXTT16=
EXTT17=
EXTT18=
EXTT19=
PLAYORDER=
